<svg width="90" height="90" viewBox="0 0 90 90" fill="none" xmlns="http://www.w3.org/2000/svg">
<circle cx="45" cy="45" r="45" fill="#A51C30" fill-opacity="0.07"/>
<path d="M46.75 52H43.25C42.2875 52 41.5 51.2125 41.5 50.25H29.2675V57.25C29.2675 59.175 30.8425 60.75 32.7675 60.75H57.25C59.175 60.75 60.75 59.175 60.75 57.25V50.25H48.5C48.5 51.2125 47.7125 52 46.75 52ZM59 36.25H52C52 32.3825 48.8675 29.25 45 29.25C41.1325 29.25 38 32.3825 38 36.25H31C29.075 36.25 27.5 37.825 27.5 39.75V45C27.5 46.9425 29.0575 48.5 31 48.5H41.5V46.75C41.5 45.7875 42.2875 45 43.25 45H46.75C47.7125 45 48.5 45.7875 48.5 46.75V48.5H59C60.925 48.5 62.5 46.925 62.5 45V39.75C62.5 37.825 60.925 36.25 59 36.25ZM41.5 36.25C41.5 34.325 43.075 32.75 45 32.75C46.925 32.75 48.5 34.325 48.5 36.25H41.4825H41.5Z" fill="#A51C30"/>
</svg>
