<svg width="90" height="90" viewBox="0 0 90 90" fill="none" xmlns="http://www.w3.org/2000/svg">
<circle cx="45" cy="45" r="45" fill="#A51C30" fill-opacity="0.07"/>
<path d="M53.75 43.25V32.75C53.75 30.825 52.175 29.25 50.25 29.25H39.75C37.825 29.25 36.25 30.825 36.25 32.75V36.25H32.75C30.825 36.25 29.25 37.825 29.25 39.75V57.25C29.25 59.175 30.825 60.75 32.75 60.75H41.5C42.4625 60.75 43.25 59.9625 43.25 59V53.75H46.75V59C46.75 59.9625 47.5375 60.75 48.5 60.75H57.25C59.175 60.75 60.75 59.175 60.75 57.25V46.75C60.75 44.825 59.175 43.25 57.25 43.25H53.75ZM36.25 57.25H32.75V53.75H36.25V57.25ZM36.25 50.25H32.75V46.75H36.25V50.25ZM36.25 43.25H32.75V39.75H36.25V43.25ZM43.25 50.25H39.75V46.75H43.25V50.25ZM43.25 43.25H39.75V39.75H43.25V43.25ZM43.25 36.25H39.75V32.75H43.25V36.25ZM50.25 50.25H46.75V46.75H50.25V50.25ZM50.25 43.25H46.75V39.75H50.25V43.25ZM50.25 36.25H46.75V32.75H50.25V36.25ZM57.25 57.25H53.75V53.75H57.25V57.25ZM57.25 50.25H53.75V46.75H57.25V50.25Z" fill="#A51C30"/>
</svg>
