<svg width="64" height="64" viewBox="0 0 64 64" fill="none" xmlns="http://www.w3.org/2000/svg">
<circle cx="32" cy="32" r="32" fill="#A51C30" fill-opacity="0.07"/>
<path d="M32 19.5C25.125 19.5 19.5 25.125 19.5 32C19.5 38.875 25.125 44.5 32 44.5C38.875 44.5 44.5 38.875 44.5 32C44.5 25.125 38.875 19.5 32 19.5ZM37 39.5H27C26.3125 39.5 25.75 38.9375 25.75 38.25C25.75 37.5625 26.3125 37 27 37H37C37.6875 37 38.25 37.5625 38.25 38.25C38.25 38.9375 37.6875 39.5 37 39.5ZM28.9875 33.6125L26.625 31.25C26.1375 30.7625 26.1375 29.9875 26.625 29.5C27.1125 29.0125 27.8875 29.0125 28.375 29.5L29.875 31L35.625 25.25C36.1125 24.7625 36.8875 24.7625 37.375 25.25C37.8625 25.7375 37.8625 26.5125 37.375 27L30.7625 33.6125C30.275 34.1 29.475 34.1 28.9875 33.6125Z" fill="#A51C30"/>
</svg>
