<svg width="90" height="90" viewBox="0 0 90 90" fill="none" xmlns="http://www.w3.org/2000/svg">
<circle cx="45" cy="45" r="45" fill="#A51C30" fill-opacity="0.07"/>
<path d="M52 31C52 29.0575 53.5575 27.5 55.5 27.5C57.4425 27.5 59 29.0575 59 31C59 32.9425 57.4425 34.5 55.5 34.5C53.5575 34.5 52 32.9425 52 31ZM59 60.75V52H60.9425C62.1325 52 62.9725 50.8275 62.605 49.69L58.93 38.6475C58.44 37.2125 57.11 36.25 55.605 36.25H55.395C53.89 36.25 52.5425 37.2125 52.07 38.6475L50.565 43.1625C52.455 44.2125 53.75 46.19 53.75 48.5V62.5H57.25C58.2125 62.5 59 61.7125 59 60.75ZM45.875 44.125C47.3275 44.125 48.5 42.9525 48.5 41.5C48.5 40.0475 47.3275 38.875 45.875 38.875C44.4225 38.875 43.25 40.0475 43.25 41.5C43.25 42.9525 44.4225 44.125 45.875 44.125ZM33.625 34.5C35.5675 34.5 37.125 32.9425 37.125 31C37.125 29.0575 35.5675 27.5 33.625 27.5C31.6825 27.5 30.125 29.0575 30.125 31C30.125 32.9425 31.6825 34.5 33.625 34.5ZM37.125 60.75V50.25H38C38.9625 50.25 39.75 49.4625 39.75 48.5V39.75C39.75 37.825 38.175 36.25 36.25 36.25H31C29.075 36.25 27.5 37.825 27.5 39.75V48.5C27.5 49.4625 28.2875 50.25 29.25 50.25H30.125V60.75C30.125 61.7125 30.9125 62.5 31.875 62.5H35.375C36.3375 62.5 37.125 61.7125 37.125 60.75ZM41.5 48.5V53.75C41.5 54.7125 42.2875 55.5 43.25 55.5V60.75C43.25 61.7125 44.0375 62.5 45 62.5H46.75C47.7125 62.5 48.5 61.7125 48.5 60.75V55.5C49.4625 55.5 50.25 54.7125 50.25 53.75V48.5C50.25 47.065 49.06 45.875 47.625 45.875H44.125C42.69 45.875 41.5 47.065 41.5 48.5Z" fill="#A51C30"/>
</svg>
