<svg width="230" height="84" viewBox="0 0 230 84" fill="none" xmlns="http://www.w3.org/2000/svg">
<path d="M17 58C15.9585 59.3721 15.66 61.1292 13 60.9611C9.9486 60.7713 6.18076 62.0078 5 58C8.90713 58 12.8209 58 17 58Z" fill="#E1B436"/>
<path d="M74 58C72.9585 59.3721 72.66 61.1292 70 60.9611C66.9486 60.7713 63.1808 62.0078 62 58C65.9071 58 69.8209 58 74 58Z" fill="#E1B436"/>
<path d="M77.3789 48.0109C74.7802 42.0523 72.0841 36.1348 69.5618 30.1419C68.8739 28.5149 67.9637 28.0069 66.2057 28.0138C48.0492 28.0756 29.8927 28.0756 11.7292 28.0001C9.91567 27.9932 9.09574 28.6248 8.42173 30.1968C5.82993 36.2859 3.08525 42.2994 0.458712 48.3748C-0.708641 51.0726 0.38923 52.782 3.32846 52.83C7.95618 52.8987 12.5839 52.8712 17.2047 52.8506C21.2556 52.83 22.2076 51.4365 20.6372 47.8531C18.4068 42.7525 16.1485 37.6588 13.6679 32.0297C18.6361 32.0297 23.0275 32.1601 27.412 31.9748C29.7398 31.8787 30.2818 32.6613 30.254 34.8511C30.1359 44.2216 30.4694 53.5989 30.1081 62.9556C29.8857 68.6809 30.8446 73.7265 34.6038 78.2092C36.2019 80.1176 37.6889 84.1404 38.8076 83.9962C41.2535 83.6805 41.7469 80.1176 43.4076 78.1474C47.0764 73.8089 48.1673 68.9005 47.931 63.2508C47.5419 53.7842 47.799 44.2902 47.8685 34.8031C47.8755 33.7802 47.0347 32.0434 49.2652 32.0366C54.15 32.0228 59.0348 32.0297 64.3574 32.0297C61.7934 37.7961 59.4726 42.979 57.1934 48.1894C55.9427 51.0452 57.0475 52.8026 60.1605 52.8438C64.8994 52.9055 69.6452 52.8987 74.3841 52.8438C77.8167 52.8094 78.7825 51.2305 77.3789 48.0109ZM16.9406 49.1368C13.0634 49.1368 9.56129 49.0956 6.06618 49.1574C4.46107 49.1848 4.71122 48.3336 5.10033 47.4412C6.83052 43.5008 8.59544 39.581 10.673 34.9266C12.8827 39.9242 14.7935 44.2765 16.9406 49.1368ZM39.03 77.4197C35.5557 73.3695 33.8394 69.1957 34.0548 63.9098C34.4579 54.2305 34.2355 44.5236 34.1174 34.8305C34.0896 32.6544 34.6107 31.9473 36.9315 31.9679C43.8662 32.0228 43.8662 31.913 43.8662 38.5787C43.8662 46.9057 43.5187 55.2533 43.9912 63.5529C44.29 68.976 42.4904 73.2322 39.03 77.4197ZM71.5144 49.1642C68.1999 49.0819 64.8785 49.1437 61.1124 49.1437C63.1831 44.4207 65.1217 39.9929 67.3383 34.9266C69.3673 39.478 71.0627 43.3017 72.779 47.1048C73.3835 48.4366 73.3418 49.2054 71.5144 49.1642Z" fill="#A51C30"/>
<path d="M54.5209 19.8873C51.0527 20.1851 47.5425 19.9866 44.0462 19.9369C43.2545 19.9227 41.9373 20.4475 42.0144 18.8591C42.0634 17.7954 41.3698 16.4553 42.8061 15.7249C43.3246 15.4625 43.8711 15.2356 44.3475 14.9095C47.5705 12.7113 48.7896 8.52762 47.2832 4.92543C45.8119 1.40834 41.7761 -0.669289 38.0907 0.195803C34.4334 1.0538 31.7849 4.6489 31.9741 8.57018C32.1142 11.4987 33.3754 13.8955 36.0098 15.1009C37.9576 15.9873 38.2239 17.3984 37.8175 19.0293C37.355 20.8729 35.6875 19.866 34.6085 19.9086C31.3575 20.0575 28.0785 20.1425 24.8345 19.9086C21.7376 19.6816 20.6026 21.2913 20 24C33.3684 24 46.5125 24 60 24C59.0121 20.9155 57.5197 19.6249 54.5209 19.8873ZM35.8697 8.08798C35.8487 5.62743 37.5092 4.3369 39.8143 4.0249C42.3367 4.23053 43.9201 5.59199 43.9622 8.01709C44.0042 10.3925 42.652 12.0731 40.1226 12.1653C37.4461 12.2716 35.8977 10.6691 35.8697 8.08798Z" fill="#E1B436"/>
<path d="M86.8952 21.2293V0.326148H96.7126C99.0799 0.326148 100.87 0.89938 102.084 2.04584C103.317 3.17254 103.934 4.72422 103.934 6.70088C103.934 8.65778 103.317 10.2193 102.084 11.3856C100.87 12.532 99.0799 13.1053 96.7126 13.1053H91.5503V21.2293H86.8952ZM91.5503 9.51762H96.1158C97.2298 9.51762 98.0554 9.27054 98.5925 8.77638C99.1496 8.28221 99.4281 7.59038 99.4281 6.70088C99.4281 5.81138 99.1496 5.12944 98.5925 4.65504C98.0554 4.16087 97.2298 3.91379 96.1158 3.91379H91.5503V9.51762Z" fill="#A8283B"/>
<path d="M107.031 21.2293V0.326148H121.653V3.91379H111.478V8.80602H120.937V12.4233H111.478V17.6417H121.653V21.2293H107.031Z" fill="#A8283B"/>
<path d="M122.068 21.2293L131.737 0.326148H135.586L145.374 21.2293H140.659L138.122 15.418L139.943 16.6929H127.44L129.29 15.418L126.753 21.2293H122.068ZM133.646 5.18874L129.797 14.2616L128.991 13.1349H138.391L137.705 14.2616L133.766 5.18874H133.646Z" fill="#A8283B"/>
<path d="M147.187 21.2293V0.326148H156.736C159.104 0.326148 160.934 0.889497 162.227 2.01619C163.52 3.12313 164.167 4.6748 164.167 6.67123C164.167 7.97583 163.868 9.10252 163.271 10.0513C162.694 10.9804 161.859 11.7018 160.765 12.2158C159.691 12.7099 158.397 12.957 156.886 12.957L157.244 12.3047H158.467C159.322 12.3047 160.078 12.532 160.735 12.9867C161.411 13.4413 161.968 14.1035 162.406 14.9732L165.539 21.2293H160.407L157.154 14.4988C156.915 13.9256 156.537 13.55 156.02 13.3721C155.523 13.1744 154.946 13.0756 154.289 13.0756H151.843V21.2293H147.187ZM151.843 9.75482H155.931C157.144 9.75482 158.069 9.50774 158.706 9.01357C159.342 8.51941 159.661 7.78804 159.661 6.81948C159.661 5.85092 159.342 5.12944 158.706 4.65504C158.069 4.16087 157.144 3.91379 155.931 3.91379H151.843V9.75482Z" fill="#A8283B"/>
<path d="M175.836 21.5555C174.145 21.5555 172.564 21.3479 171.092 20.9328C169.62 20.5177 168.366 19.9445 167.332 19.2131L168.705 15.5959C169.381 16.0505 170.097 16.4359 170.853 16.7522C171.609 17.0685 172.405 17.3156 173.24 17.4935C174.076 17.6516 174.951 17.7306 175.866 17.7306C177.299 17.7306 178.313 17.5132 178.91 17.0784C179.527 16.6435 179.835 16.09 179.835 15.418C179.835 14.8052 179.626 14.3407 179.208 14.0244C178.81 13.6884 178.074 13.4018 177 13.1646L173.479 12.453C171.549 12.0576 170.107 11.3856 169.152 10.4368C168.197 9.48797 167.72 8.22291 167.72 6.64158C167.72 5.29745 168.078 4.13122 168.794 3.14289C169.51 2.15456 170.515 1.38366 171.808 0.830198C173.121 0.276733 174.653 0 176.403 0C177.895 0 179.288 0.207549 180.581 0.622647C181.874 1.03775 182.938 1.63075 183.774 2.40164L182.401 5.78173C181.586 5.12944 180.67 4.64515 179.656 4.32889C178.661 3.99286 177.547 3.82484 176.314 3.82484C175.021 3.82484 174.026 4.05216 173.33 4.50679C172.653 4.96142 172.315 5.58407 172.315 6.37473C172.315 6.96773 172.524 7.45201 172.942 7.82758C173.36 8.18338 174.096 8.46999 175.15 8.68743L178.612 9.36937C180.581 9.76471 182.043 10.4269 182.998 11.3559C183.953 12.2849 184.43 13.5204 184.43 15.0622C184.43 16.3668 184.072 17.5033 183.356 18.4719C182.66 19.4405 181.665 20.2015 180.372 20.7549C179.099 21.2886 177.587 21.5555 175.836 21.5555Z" fill="#A8283B"/>
<path d="M187.241 10.7629C187.241 8.58859 187.649 6.70088 188.465 5.09979C189.3 3.47892 190.494 2.22374 192.046 1.33425C193.597 0.444749 195.437 0 197.566 0C199.695 0 201.535 0.444749 203.087 1.33425C204.638 2.22374 205.832 3.47892 206.667 5.09979C207.523 6.70088 207.95 8.57871 207.95 10.7333C207.95 12.9274 207.523 14.8348 206.667 16.4557C205.832 18.0568 204.638 19.312 203.087 20.2212C201.535 21.1107 199.695 21.5555 197.566 21.5555C195.437 21.5555 193.597 21.1107 192.046 20.2212C190.514 19.312 189.33 18.0469 188.495 16.4261C187.659 14.8052 187.241 12.9175 187.241 10.7629ZM192.105 10.7629C192.105 12.9175 192.553 14.6075 193.448 15.8331C194.363 17.0388 195.736 17.6417 197.566 17.6417C199.356 17.6417 200.719 17.0388 201.654 15.8331C202.589 14.6075 203.057 12.9175 203.057 10.7629C203.057 8.58859 202.589 6.90843 201.654 5.72243C200.739 4.51667 199.376 3.91379 197.566 3.91379C195.736 3.91379 194.363 4.51667 193.448 5.72243C192.553 6.90843 192.105 8.58859 192.105 10.7629Z" fill="#A8283B"/>
<path d="M211.589 21.2293V0.326148H215.05L226.479 14.7657H225.673V0.326148H230V21.2293H226.539L215.14 6.78983H215.915V21.2293H211.589Z" fill="#A8283B"/>
<path d="M94.5044 52.4408C92.8135 52.4408 91.232 52.2333 89.7599 51.8182C88.2877 51.4031 87.0345 50.8298 86 50.0985L87.3726 46.4812C88.049 46.9358 88.7652 47.3213 89.5211 47.6375C90.2771 47.9538 91.0728 48.2009 91.9084 48.3788C92.7439 48.5369 93.6192 48.616 94.5343 48.616C95.9666 48.616 96.9812 48.3985 97.578 47.9637C98.1947 47.5288 98.503 46.9753 98.503 46.3033C98.503 45.6905 98.2941 45.226 97.8764 44.9097C97.4785 44.5737 96.7425 44.2871 95.6682 44.0499L92.1471 43.3383C90.2174 42.943 88.7751 42.2709 87.8203 41.3221C86.8654 40.3733 86.3879 39.1082 86.3879 37.5269C86.3879 36.1828 86.746 35.0166 87.4622 34.0282C88.1783 33.0399 89.183 32.269 90.476 31.7155C91.789 31.1621 93.3208 30.8853 95.0714 30.8853C96.5634 30.8853 97.956 31.0929 99.249 31.508C100.542 31.9231 101.606 32.5161 102.442 33.287L101.069 36.6671C100.254 36.0148 99.3386 35.5305 98.324 35.2142C97.3293 34.8782 96.2153 34.7102 94.9819 34.7102C93.6888 34.7102 92.6941 34.9375 91.9979 35.3921C91.3215 35.8467 90.9833 36.4694 90.9833 37.2601C90.9833 37.8531 91.1922 38.3373 91.61 38.7129C92.0277 39.0687 92.7638 39.3553 93.8181 39.5728L97.2796 40.2547C99.249 40.65 100.711 41.3122 101.666 42.2412C102.621 43.1703 103.098 44.4057 103.098 45.9475C103.098 47.2521 102.74 48.3887 102.024 49.3572C101.328 50.3258 100.333 51.0868 99.0402 51.6403C97.767 52.174 96.2551 52.4408 94.5044 52.4408Z" fill="#A8283B"/>
<path d="M106.536 52.1147V31.2115H116.354C118.721 31.2115 120.511 31.7847 121.725 32.9312C122.958 34.0579 123.575 35.6096 123.575 37.5862C123.575 39.5431 122.958 41.1047 121.725 42.2709C120.511 43.4174 118.721 43.9906 116.354 43.9906H111.191V52.1147H106.536ZM111.191 40.403H115.757C116.871 40.403 117.696 40.1559 118.233 39.6617C118.79 39.1675 119.069 38.4757 119.069 37.5862C119.069 36.6967 118.79 36.0148 118.233 35.5404C117.696 35.0462 116.871 34.7991 115.757 34.7991H111.191V40.403Z" fill="#A8283B"/>
<path d="M126.672 52.1147V31.2115H141.294V34.7991H131.119V39.6914H140.578V43.3086H131.119V48.527H141.294V52.1147H126.672Z" fill="#A8283B"/>
<path d="M154.711 52.4408C152.463 52.4408 150.534 51.9961 148.922 51.1066C147.311 50.2171 146.067 48.9718 145.192 47.3707C144.337 45.7498 143.909 43.8423 143.909 41.6483C143.909 39.4542 144.337 37.5566 145.192 35.9555C146.067 34.3544 147.311 33.1091 148.922 32.2196C150.534 31.3301 152.463 30.8853 154.711 30.8853C156.163 30.8853 157.486 31.0929 158.68 31.508C159.874 31.9033 160.888 32.4864 161.724 33.2573L160.261 36.9043C159.346 36.1927 158.471 35.6886 157.636 35.3921C156.82 35.0956 155.895 34.9474 154.86 34.9474C152.891 34.9474 151.379 35.5305 150.325 36.6967C149.29 37.8432 148.773 39.4937 148.773 41.6483C148.773 43.8028 149.29 45.4632 150.325 46.6294C151.379 47.7957 152.891 48.3788 154.86 48.3788C155.895 48.3788 156.82 48.2305 157.636 47.934C158.471 47.6375 159.346 47.1335 160.261 46.4219L161.724 50.0688C160.888 50.82 159.874 51.4031 158.68 51.8182C157.486 52.2333 156.163 52.4408 154.711 52.4408Z" fill="#A8283B"/>
<path d="M169.536 52.1147V34.977H162.852V31.2115H180.875V34.977H174.191V52.1147H169.536Z" fill="#A8283B"/>
<path d="M183.409 52.1147V31.2115H198.031V34.7991H187.856V39.6914H197.315V43.3086H187.856V48.527H198.031V52.1147H183.409Z" fill="#A8283B"/>
<path d="M201.273 52.1147V31.2115H210.822C213.189 31.2115 215.019 31.7748 216.312 32.9015C217.605 34.0085 218.252 35.5601 218.252 37.5566C218.252 38.8612 217.953 39.9879 217.357 40.9367C216.78 41.8657 215.944 42.5872 214.85 43.1011C213.776 43.5953 212.483 43.8423 210.971 43.8423L211.329 43.19H212.552C213.408 43.19 214.164 43.4174 214.82 43.872C215.497 44.3266 216.054 44.9888 216.491 45.8585L219.624 52.1147H214.492L211.239 45.3841C211.001 44.8109 210.623 44.4353 210.105 44.2574C209.608 44.0598 209.031 43.9609 208.375 43.9609H205.928V52.1147H201.273ZM205.928 40.6402H210.016C211.229 40.6402 212.154 40.3931 212.791 39.8989C213.428 39.4047 213.746 38.6734 213.746 37.7048C213.746 36.7362 213.428 36.0148 212.791 35.5404C212.154 35.0462 211.229 34.7991 210.016 34.7991H205.928V40.6402Z" fill="#A8283B"/>
<path d="M86.8952 83V62.0968H91.5503V79.1159H101.039V83H86.8952Z" fill="#A8283B"/>
<path d="M103.884 83V62.0968H108.539V83H103.884Z" fill="#A8283B"/>
<path d="M117.665 83V65.8624H110.981V62.0968H129.005V65.8624H122.32V83H117.665Z" fill="#A8283B"/>
<path d="M136.811 83V65.8624H130.127V62.0968H148.15V65.8624H141.466V83H136.811Z" fill="#A8283B"/>
</svg>
