<svg width="90" height="90" viewBox="0 0 90 90" fill="none" xmlns="http://www.w3.org/2000/svg">
<circle cx="45" cy="45" r="45" fill="#A51C30" fill-opacity="0.07"/>
<path d="M41.0201 27.5V26.5H40.0201V27.5H41.0201ZM48.9799 27.5H49.9799V26.5H48.9799V27.5ZM48.9799 62.5V63.5H49.9799V62.5H48.9799ZM41.0201 62.5H40.0201V63.5H41.0201V62.5ZM27.5 39.6179L26.6391 39.1092L26.1201 39.9876L27.0086 40.4888L27.5 39.6179ZM31.4799 32.8821L31.9712 32.0112L31.1175 31.5296L30.6189 32.3734L31.4799 32.8821ZM62.4999 50.3821L63.3609 50.8908L63.8798 50.0125L62.9913 49.5112L62.4999 50.3821ZM58.52 57.1179L58.0287 57.9888L58.8824 58.4705L59.381 57.6266L58.52 57.1179ZM58.5201 32.8821L59.3811 32.3734L58.8825 31.5295L58.0288 32.0112L58.5201 32.8821ZM62.5 39.6179L62.9914 40.4888L63.8799 39.9875L63.3609 39.1092L62.5 39.6179ZM31.48 57.1179L30.619 57.6266L31.1176 58.4704L31.9713 57.9888L31.48 57.1179ZM27.5001 50.3821L27.0087 49.5112L26.1202 50.0124L26.6391 50.8908L27.5001 50.3821ZM41.0201 38.2643L40.5288 39.1352C40.8384 39.3099 41.2175 39.3071 41.5244 39.1278C41.8314 38.9485 42.0201 38.6198 42.0201 38.2643H41.0201ZM48.9799 38.2643H47.9799C47.9799 38.6197 48.1686 38.9485 48.4756 39.1278C48.7825 39.3071 49.1616 39.3099 49.4712 39.1352L48.9799 38.2643ZM52.9597 45L52.4684 44.1291C52.1541 44.3064 51.9597 44.6392 51.9597 45C51.9597 45.3608 52.1541 45.6937 52.4684 45.871L52.9597 45ZM37.0402 45L37.5316 45.871C37.8459 45.6937 38.0402 45.3608 38.0402 45C38.0402 44.6392 37.8459 44.3064 37.5316 44.1291L37.0402 45ZM41.0201 51.7358H42.0201C42.0201 51.3803 41.8314 51.0515 41.5244 50.8722C41.2175 50.693 40.8384 50.6901 40.5288 50.8648L41.0201 51.7358ZM48.9799 51.7358L49.4712 50.8648C49.1616 50.6902 48.7825 50.693 48.4756 50.8723C48.1686 51.0515 47.9799 51.3803 47.9799 51.7358H48.9799ZM41.0201 28.5H48.9799V26.5H41.0201V28.5ZM48.9799 61.5H41.0201V63.5H48.9799V61.5ZM28.3609 40.1266L32.3408 33.3908L30.6189 32.3734L26.6391 39.1092L28.3609 40.1266ZM61.639 49.8734L57.6591 56.6092L59.381 57.6266L63.3609 50.8908L61.639 49.8734ZM57.6592 33.3908L61.6391 40.1266L63.3609 39.1092L59.3811 32.3734L57.6592 33.3908ZM32.3409 56.6092L28.361 49.8734L26.6391 50.8908L30.619 57.6266L32.3409 56.6092ZM30.9885 33.7531L40.5288 39.1352L41.5115 37.3933L31.9712 32.0112L30.9885 33.7531ZM42.0201 38.2643V27.5H40.0201V38.2643H42.0201ZM49.4712 39.1352L59.0115 33.7531L58.0288 32.0112L48.4885 37.3933L49.4712 39.1352ZM47.9799 27.5V38.2643H49.9799V27.5H47.9799ZM52.4684 45.871L62.0086 51.2531L62.9913 49.5112L53.4511 44.1291L52.4684 45.871ZM62.0086 38.7469L52.4684 44.1291L53.4511 45.871L62.9914 40.4888L62.0086 38.7469ZM27.9914 51.2531L37.5316 45.871L36.5489 44.1291L27.0087 49.5112L27.9914 51.2531ZM37.5316 44.1291L27.9914 38.7469L27.0086 40.4888L36.5489 45.871L37.5316 44.1291ZM40.5288 50.8648L30.9886 56.2469L31.9713 57.9888L41.5115 52.6067L40.5288 50.8648ZM42.0201 62.5V51.7358H40.0201V62.5H42.0201ZM59.0114 56.2469L49.4712 50.8648L48.4885 52.6067L58.0287 57.9888L59.0114 56.2469ZM47.9799 51.7358V62.5H49.9799V51.7358H47.9799Z" fill="#A51C30"/>
</svg>
