<svg width="50" height="50" viewBox="0 0 50 50" fill="none" xmlns="http://www.w3.org/2000/svg">
<circle cx="25" cy="25" r="25" fill="#A51C30" fill-opacity="0.07"/>
<path fill-rule="evenodd" clip-rule="evenodd" d="M17 15H33C34.1046 15 35 15.8954 35 17V33C35 34.1046 34.1046 35 33 35H17C15.8954 35 15 34.1046 15 33V17C15 15.8954 15.8954 15 17 15ZM17 17V33H33V17H17ZM26 22C25.4823 22 24.9353 22.1583 24.4521 22.4521L24 22H23V29H25V25C25 24.4243 25.594 24 26 24H27C27.406 24 28 24.4243 28 25V29H30V25C30 23.1472 28.394 22 27 22H26ZM21 21C21.5523 21 22 20.5523 22 20C22 19.4477 21.5523 19 21 19C20.4477 19 20 19.4477 20 20C20 20.5523 20.4477 21 21 21ZM20 22V29H22V22H20Z" fill="#A51C30"/>
</svg>
