<svg width="50" height="50" viewBox="0 0 50 50" fill="none" xmlns="http://www.w3.org/2000/svg">
<circle cx="25" cy="25" r="25" fill="#A51C30" fill-opacity="0.07"/>
<path d="M25 15C21.13 15 18 18.13 18 22C18 23.74 18.5 25.37 19.41 26.84C20.36 28.38 21.61 29.7 22.57 31.24C23.04 31.99 23.38 32.69 23.74 33.5C24 34.05 24.21 35 25 35C25.79 35 26 34.05 26.25 33.5C26.62 32.69 26.95 31.99 27.42 31.24C28.38 29.71 29.63 28.39 30.58 26.84C31.5 25.37 32 23.74 32 22C32 18.13 28.87 15 25 15ZM25 24.75C23.62 24.75 22.5 23.63 22.5 22.25C22.5 20.87 23.62 19.75 25 19.75C26.38 19.75 27.5 20.87 27.5 22.25C27.5 23.63 26.38 24.75 25 24.75Z" fill="#A51C30"/>
</svg>
