<svg width="64" height="64" viewBox="0 0 64 64" fill="none" xmlns="http://www.w3.org/2000/svg">
<circle cx="32" cy="32" r="32" fill="#A51C30" fill-opacity="0.07"/>
<path d="M37.625 22.4751C39.0057 22.4751 40.125 21.3558 40.125 19.9751C40.125 18.5944 39.0057 17.4751 37.625 17.4751C36.2443 17.4751 35.125 18.5944 35.125 19.9751C35.125 21.3558 36.2443 22.4751 37.625 22.4751Z" fill="#A51C30"/>
<path d="M46.9998 30.6001V25.9751L40.7623 23.3376C39.5373 22.8251 38.1123 23.2501 37.3748 24.3501L36.1248 26.3501C35.2873 27.8251 33.7373 28.9251 31.8623 29.2501L31.9373 29.3251C32.7998 30.1876 33.8373 30.6626 35.0123 30.7876C36.0123 30.2626 36.9123 29.5626 37.6248 28.7376L38.3748 32.4876L36.9248 33.8626L35.7498 34.9751V35.9251V43.1001C35.7498 43.7876 36.3123 44.3501 36.9998 44.3501C37.6873 44.3501 38.2498 43.7876 38.2498 43.1001V36.8501L40.8748 34.3501L42.8998 43.3376C43.0373 43.9251 43.5623 44.3501 44.1748 44.3501C44.9998 44.3501 45.6123 43.6001 45.4498 42.8001L43.0248 30.6001L42.2498 26.7251L44.4998 27.6001V30.6001C44.4998 31.2876 45.0623 31.8501 45.7498 31.8501C46.4373 31.8501 46.9998 31.2876 46.9998 30.6001Z" fill="#A51C30"/>
<path d="M29.8621 27.1127C30.1371 27.3002 30.4496 27.4127 30.7621 27.4752C30.9246 27.5002 31.0746 27.5252 31.2371 27.5252C31.3996 27.5252 31.5621 27.5127 31.7121 27.4752C31.8746 27.4502 32.0246 27.4002 32.1746 27.3377C32.4746 27.2127 32.7621 27.0377 32.9996 26.7877C33.6121 26.1752 33.8371 25.3252 33.6871 24.5377C33.5996 24.0752 33.3746 23.6127 32.9996 23.2502C32.7621 23.0127 32.4746 22.8252 32.1746 22.7002C32.0246 22.6377 31.8746 22.5877 31.7121 22.5627C31.5496 22.5377 31.3996 22.5127 31.2371 22.5127C31.0871 22.5127 30.9496 22.5252 30.7996 22.5502C30.6246 22.5752 30.4496 22.6252 30.2871 22.6877C29.9996 22.8252 29.7121 23.0127 29.4746 23.2502C29.0996 23.6127 28.8746 24.0752 28.7871 24.5377C28.6371 25.3252 28.8621 26.1752 29.4746 26.7877C29.5871 26.9127 29.7246 27.0127 29.8621 27.1127Z" fill="#A51C30"/>
<path d="M31.0496 30.2001L28.5496 27.7001C28.4246 27.5751 28.2996 27.4751 28.1621 27.3751C27.8871 27.2001 27.5746 27.0751 27.2621 27.0251C27.0996 26.9876 26.9496 26.9751 26.7871 26.9751C26.1496 26.9751 25.5121 27.2251 25.0246 27.7126L20.8496 31.8876C20.3371 32.4001 20.0746 33.1126 20.1246 33.8126C20.1246 34.0376 20.1746 34.2751 20.2621 34.5001L21.5996 38.1876L17.9496 41.8376C17.4621 42.3251 17.4621 43.1126 17.9496 43.6001C18.4371 44.0876 19.2246 44.0876 19.7121 43.6001L24.1371 39.1751V36.4001L25.7496 37.9376V43.1001C25.7496 43.7876 26.3121 44.3501 26.9996 44.3501C27.6871 44.3501 28.2496 43.7876 28.2496 43.1001V36.8501L25.5996 34.2001L28.5496 31.2501L29.4371 32.1376C30.7121 33.3876 32.2871 34.2501 34.1746 34.5626C34.9746 34.7001 35.6871 34.0001 35.6246 33.1876C35.5871 32.5876 35.1246 32.1001 34.5371 32.0126C33.1246 31.7876 31.9621 31.1126 31.0496 30.2001Z" fill="#A51C30"/>
</svg>
