<svg width="50" height="50" viewBox="0 0 50 50" fill="none" xmlns="http://www.w3.org/2000/svg">
<circle cx="25" cy="25" r="25" fill="#A51C30" fill-opacity="0.07"/>
<path d="M35.5006 18.687C34.6841 19.8559 33.6655 20.8697 32.4926 21.6804L32.4926 21.6804C32.4183 23.7308 31.8198 25.7279 30.7541 27.4812C29.6884 29.2345 28.1911 30.6853 26.4052 31.6952C24.6192 32.7051 22.6042 33.2404 20.5525 33.25C18.5008 33.2595 16.4808 32.743 14.6855 31.7498L14.6862 31.7487C17.0305 31.7162 19.3134 30.9943 21.2502 29.673L21.2502 29.6731C19.1769 28.26 17.5978 26.2335 16.7343 23.8778C15.8708 21.522 15.7662 18.9551 16.4352 16.5369L16.4351 16.5369C17.3932 18.0124 18.6641 19.2591 20.1576 20.1888C21.6512 21.1185 23.3309 21.7084 25.0778 21.9167L25.0775 21.9167C24.8936 21.0398 25.0296 20.126 25.461 19.3407C25.8924 18.5554 26.5907 17.9504 27.4295 17.6353C28.2683 17.3203 29.1922 17.3159 30.034 17.623C30.8757 17.9301 31.5797 18.5283 32.0186 19.3095L32.0186 19.3099C33.2036 19.2746 34.3769 19.0647 35.5006 18.687" stroke="#A51C30" stroke-width="2" stroke-linecap="round" stroke-linejoin="round"/>
</svg>
